<svg width="546" height="392" viewBox="0 0 546 392" fill="none" xmlns="http://www.w3.org/2000/svg">
<path d="M59.5 15.5001C51.4995 15.0004 51.4983 14.9575 42.5 16.5001C33.5017 18.0428 30.5007 37.5001 45 37.5001C59.4993 37.5001 68.2377 43.2304 72 47.0001C76.3839 54.7659 76.1221 59.2687 72 67.5001C72 67.5001 68.5017 70.5002 62.5 76.0001C56.4983 81.5 59.4983 92.5 62.5 94.0001C65.5017 95.5001 73.2179 96.0323 78 101C79.8815 107.855 80.5017 109 76 118C71.4983 127 55.4166 130.66 44 130.5C32.5835 130.34 41.1417 152.604 52 152.5C62.8583 152.397 76.5373 150.549 89 138.5C98.0254 129.089 101.206 122.248 102 106C100.592 95.3804 98.0398 90.0184 89 82.0001C97.0556 71.9656 99.4191 65.026 98.5 49.5001C94.8559 27.0441 67.5005 15.9998 59.5 15.5001Z" fill="white" stroke="white"/>
<path d="M3.49874 145.5C3.49874 145.5 3.49828 48.4999 3.49874 36.4999C3.49919 24.5 25.9988 24.5001 25.9987 36.4999V73H41C52.0012 73 52.0012 95.9999 41 95.9999H25.9987V145.5C23.9997 157.001 4.99971 157.001 3.49874 145.5Z" fill="white"/>
<path d="M25.9987 73H41C52.0012 73 52.0012 95.9999 41 95.9999H25.9987V145.5C23.9997 157.001 4.99971 157.001 3.49874 145.5C3.49874 145.5 3.49828 48.4999 3.49874 36.4999C3.49919 24.5 25.9988 24.5001 25.9987 36.4999M25.9987 73C25.9987 73 25.9987 48.4998 25.9987 36.4999M25.9987 73V36.4999" stroke="white"/>
<path d="M119.999 103.499C119.999 103.499 120.076 30.0052 119.999 20.9994C119.921 11.9936 142.376 11.9651 142.499 20.9994C142.622 30.0338 143.999 103.499 143.999 103.499C147.454 113.503 150.808 118.516 161.499 125.499C173.306 130.996 180.137 130.179 192.499 125.499C202.814 119.712 206.128 114.765 208.499 103.499C208.499 103.499 210.499 30.4988 210.499 20.9994C210.499 11.5 232.999 11.4997 232.999 20.9994V103.499C230.783 115.952 227.712 121.963 219.999 131.499C212.385 141.927 206.189 145.806 192.499 149.999C180.397 152.191 173.602 152.033 161.499 149.999C149.032 146.323 142.748 142.409 132.999 131.499C125.835 121.684 122.914 115.568 119.999 103.499Z" fill="white" stroke="white"/>
<path d="M255 144V51.5005C257.788 44.9325 260.182 42.8345 266.5 43.0005C272.179 43.2429 274.491 45.3254 277.5 51.5005V144C274.077 149.65 271.556 151.368 266 152C260.013 151.305 257.475 149.718 255 144Z" fill="white" stroke="white"/>
<path d="M283.5 17C283.5 26.3888 275.889 34 266.5 34C257.111 34 249.5 26.3888 249.5 17C249.5 7.61116 257.111 0 266.5 0C275.889 0 283.5 7.61116 283.5 17ZM255.189 17C255.189 23.247 260.253 28.3111 266.5 28.3111C272.747 28.3111 277.811 23.247 277.811 17C277.811 10.753 272.747 5.68886 266.5 5.68886C260.253 5.68886 255.189 10.753 255.189 17Z" fill="white"/>
<path d="M300.5 142.5V21.5001C303.518 16.5798 305.734 14.8095 311.5 15.0001C317.393 15.1478 320.085 16.5484 323.5 21.5001V128.5H332.5C341.307 131.864 342.546 134.802 343 140.5C343.331 145.994 341.349 148.227 336 151.5H309.5C304.917 149.931 302.667 148.461 300.5 142.5Z" fill="white" stroke="white"/>
<path d="M342.329 113.211C347.967 113.4 353.584 112.282 358.809 109.931C364.035 107.579 368.749 104.048 372.641 99.5701C376.533 95.0924 379.513 89.7704 381.385 83.956C383.257 78.1417 383.978 71.9674 383.5 65.8414C383.022 59.7155 381.357 53.7776 378.613 48.4202C375.87 43.0629 372.112 38.4082 367.586 34.7641C363.061 31.1199 357.872 28.5692 352.363 27.2807C346.854 25.9923 341.15 25.9953 335.628 27.2897L336.951 34.1806C341.578 33.0961 346.356 33.0936 350.972 34.1731C355.588 35.2526 359.935 37.3895 363.726 40.4426C367.517 43.4957 370.666 47.3954 372.965 51.8838C375.263 56.3722 376.659 61.347 377.059 66.4793C377.459 71.6116 376.855 76.7845 375.287 81.6558C373.718 86.5271 371.221 90.9859 367.961 94.7373C364.7 98.4887 360.751 101.447 356.373 103.417C351.995 105.387 347.289 106.324 342.566 106.166L342.329 113.211Z" fill="#1CA4F1"/>
<path d="M359.503 130H399.503C404.804 132.693 405.503 135 405.503 140.5C405.503 146 403.352 149.055 399.503 152L359.58 151.501C356.503 150.5 353.501 145.5 353.58 140.501C353 135 355.045 132.811 359.503 130Z" fill="white"/>
<path fill-rule="evenodd" clip-rule="evenodd" d="M431 150C426.975 148.753 425.394 147.374 424.5 143V20.5C426.066 17.0482 427.51 15.3642 432.5 14H489C507.876 20.6337 517.154 25.6934 529.5 39C536.872 49.8552 539.771 55.991 543 67C544.789 78.8328 544.884 85.3062 543 96.5C539.558 108.841 536.545 114.928 529.5 124.5C516.47 139.029 507.505 144.491 489 150H431ZM517 67C509.99 50.4657 503.316 45.1193 489 39C472.51 37.8906 463.135 37.7859 447.5 39V128C462.944 129.083 471.7 129.475 489 126.5C504.121 121.02 510.939 115.471 517 96.5C520.197 86.2569 520.41 79.8831 517 67Z" fill="white"/>
<path d="M424.5 20.5C424.5 68.3392 424.5 95.1608 424.5 143M424.5 20.5C426.066 17.0482 427.51 15.3642 432.5 14H489C507.876 20.6337 517.154 25.6934 529.5 39C536.872 49.8552 539.771 55.991 543 67C544.789 78.8328 544.884 85.3062 543 96.5C539.558 108.841 536.545 114.928 529.5 124.5C516.47 139.029 507.505 144.491 489 150H431C426.975 148.753 425.394 147.374 424.5 143M424.5 20.5V143M489 39C503.316 45.1193 509.99 50.4657 517 67C520.41 79.8831 520.197 86.2569 517 96.5C510.939 115.471 504.121 121.02 489 126.5C471.7 129.475 462.944 129.083 447.5 128V39C463.135 37.7859 472.51 37.8906 489 39Z" stroke="white"/>
<path d="M4.5 307V182.5C6.04727 176.335 7.98998 173.746 15 172H125C130.708 172.909 132.736 175.269 134.5 182.5C133.184 190 130.721 192.178 125 194.5H27.5V307C25.0519 314.285 22.1849 316.417 15 317.5C8.49745 316.21 6.32003 313.785 4.5 307Z" fill="#1CA4F1" stroke="#1CA4F1"/>
<path d="M49.5 238H101.5C106.687 241.22 108.168 243.764 108.5 249.5C108.24 255.075 106.464 257.486 101.5 261H49.5C44.735 258.108 42.742 255.826 41.5 249.5C42.4019 243.791 43.7081 241.029 49.5 238Z" fill="#1CA4F1"/>
<path d="M225.5 305L182.5 178.5C179.756 172.648 176.54 170.922 168.5 170C161.687 170.427 159.048 172.431 156 178.5L111 291C111.971 294.486 113.225 294.917 116.5 293.5L157.5 195C159.648 193.093 160.851 193.427 163 195L180.5 243.5L155 244.5C147.041 248.574 145.945 251.87 146.5 258.5C149.445 266.178 152.952 267.773 161 268C172.793 266.881 178.986 266.927 188.5 269.5C194.574 287.39 197.451 296.761 203 314C208.466 319.769 212.284 319.319 219.5 316.5C223.302 312.602 224.775 310.149 225.5 305Z" fill="#1CA4F1" stroke="#1CA4F1"/>
<path d="M317 172.5C304.614 166.95 297.626 165.741 285 168.5C279.406 171.003 277.521 173.484 276 179.5C278.165 186.038 280.201 188.328 285 190.5L297 192C304.272 191.646 307.992 194.273 314.5 200C322.176 207.302 324.798 211.474 327.5 219C336.38 222.162 340.487 219.364 344.5 211C344.938 205.24 344.467 202.145 341.5 197C334.861 183.487 329.374 178.288 317 172.5Z" fill="#1CA4F1" stroke="#1CA4F1"/>
<path d="M261.499 185.5C256.548 182.99 253.8 182.578 248.999 186.5C245.168 190.651 243.971 193.781 241.999 199.5C240.107 208.286 240.669 213.21 243.999 222C247.504 229.572 250.556 233.6 257.999 240.5C264.034 243.461 267.348 243.585 272.999 240.5C276.536 236.371 277.372 233.619 276.999 228L271.499 222C267.355 218.52 265.978 215.966 264.999 210.5C263.908 204.351 264.55 200.969 266.999 195C266.44 190.872 265.463 188.734 261.499 185.5Z" fill="#1CA4F1" stroke="#1CA4F1"/>
<path d="M322.5 240.5C308.337 233.822 301.618 232.265 292.5 234.5C285.701 235.735 283.724 238.372 282.5 245.5C283.745 251.507 285.363 253.517 289 256L301.5 257.5C307.411 259.226 310.688 261.007 316.5 265C321.835 270.721 322.876 274.272 322.5 281C320.242 288.799 318.024 292.667 313 299C312.071 307.061 313.499 310.013 319.5 312.5C326.444 311.364 330.303 309.862 337 303C341.023 295.883 342.987 291.691 345.5 283.5C345.411 274.938 344.516 270.118 341 261.5C335.974 251.463 331.91 246.909 322.5 240.5Z" fill="#1CA4F1" stroke="#1CA4F1"/>
<path d="M471.001 169.5H381.001C375.914 172.376 374.986 174.983 375.001 180.5C376.118 188.355 377.583 190.609 381.001 192.5H471.001C477.148 190.214 479.115 187.665 479.501 180.5C479.095 174.228 477.245 171.773 471.001 169.5Z" fill="#1CA4F1"/>
<path d="M409 311.5C408.293 273.426 408.204 251.503 409 210.5C411.255 206.523 413.122 205.048 418.5 205C423.541 205.111 425.833 206.628 429.5 210.5C429.323 250.684 429.076 272.804 428.5 311.5C425.284 315.345 422.951 316.196 418.5 317C414.229 316.774 411.957 316.217 409 311.5Z" fill="#1CA4F1"/>
<path d="M471.001 169.5H381.001C375.914 172.376 374.986 174.983 375.001 180.5C376.118 188.355 377.583 190.609 381.001 192.5H471.001C477.148 190.214 479.115 187.665 479.501 180.5C479.095 174.228 477.245 171.773 471.001 169.5Z" stroke="#1CA4F1"/>
<path d="M409 311.5C408.293 273.426 408.204 251.503 409 210.5C411.255 206.523 413.122 205.048 418.5 205C423.541 205.111 425.833 206.628 429.5 210.5C429.323 250.684 429.076 272.804 428.5 311.5C425.284 315.345 422.951 316.196 418.5 317C414.229 316.774 411.957 316.217 409 311.5Z" stroke="#1CA4F1"/>
<path d="M539.5 236C536.787 231.44 535.821 231.86 535 237.5L539.5 266C538.533 281.859 536.643 290.236 531.5 304.5C524.882 316.526 520.287 322.195 511 331C498.07 341.959 489.959 346.383 474 351C468.302 352.912 464.861 353.475 458.5 354L313 355.5V359.5H458.5C464.707 359.23 468.11 358.727 474 357C489.405 352.348 497.671 348.751 511 338.5C523.319 327.974 529.383 320.761 538 304.5C542.388 290.533 544.05 282.156 545 266C544.407 254.122 543.178 247.556 539.5 236Z" fill="#1CA4F1" stroke="#1CA4F1"/>
<path d="M254 271.5C249.618 272.82 248.389 274.761 247 279C245.338 285.09 245.539 288.484 248 294.5C250.246 300.212 253.146 303.513 260 309.5C265.13 313.834 269.137 315.593 277.5 318C285.828 319.448 290.091 319.657 296 317.5C299.818 315.309 301.139 313.229 301.5 307.5C300.775 303.306 299.815 301.091 294.5 298C285.843 297.695 281.105 296.398 273 290.5C268.267 285.691 266.023 282.434 263 275.5C260.549 272.871 259.448 271.122 254 271.5Z" fill="#1CA4F1" stroke="#1CA4F1"/>
<path d="M470.591 213.721C482.239 215.238 492.716 222.02 499.717 232.575C506.719 243.13 509.67 256.594 507.924 270.004C506.177 283.413 499.874 295.671 490.403 304.08C480.931 312.49 469.067 316.362 457.419 314.844L458.097 309.635C468.545 310.996 479.188 307.523 487.683 299.98C496.179 292.437 501.832 281.442 503.399 269.414C504.965 257.386 502.318 245.31 496.038 235.842C489.758 226.375 480.36 220.291 469.913 218.93L470.591 213.721Z" fill="#1CA4F1"/>
<path d="M243.499 388V353C243.296 352.239 244.998 350.5 248.999 350.5C253 350.5 255.499 353 255.499 353V388C253.382 389.899 251.915 390.366 248.999 390.5C246.063 390.373 244.787 389.913 243.499 388Z" fill="#1CA4F1" stroke="#1CA4F1"/>
<path d="M6 350.5C3.56711 350.284 2.50776 350.8 1 352.5V374C2.93952 379.653 4.42734 381.774 7.5 384.5C11.011 387.507 13.4441 388.362 18 389.5C23.0572 389.402 25.5215 388.804 29 386.5C34.4135 390.226 37.7126 390.792 44 389.5C49.7033 388.366 52.2142 386.821 55.5 382.5C58.0635 377.733 58.8101 374.712 59.5 369C60.0356 363.675 60.2023 360.401 59.5 353.5C57.9972 351.648 56.9183 350.797 53.5 350.5C50.1435 351.019 48.8628 352.076 47 354.5V362.5C47.134 369.026 46.6721 371.72 45 375C41.2911 376.377 39.2073 376.557 35.5 375L34.5 354.5C32.7838 353.008 31.6247 352.517 29 352.5C26.6056 352.785 25.6547 353.242 24.5 354.5L23 374C21.3427 375.767 20.214 376.087 18 376C14.3489 373.947 13.778 371.505 13.5 366.5L12.5 353.5C10.6086 351.662 9.24377 350.935 6 350.5Z" fill="white" stroke="white"/>
<path d="M76.5 348.5C73.7407 348.505 72.4602 349.497 70.5 352.5L70 385C71.5537 388.647 72.9759 389.852 76.5 390.5C79.7654 389.767 81.1252 388.626 82.5 385V352.5C80.8323 349.592 79.4845 348.784 76.5 348.5Z" fill="white" stroke="white"/>
<path d="M107 350.5V342.5C105.577 340.134 104.383 339.32 101 339.5C98.0015 339.943 96.9383 340.597 94.9996 342C93.8612 345.102 93.599 346.457 93.4996 348.5C90.4605 350.39 89.9928 351.93 89.9996 355C90.0723 358.221 90.5175 359.562 91.9996 361H94.9996V376.5L96.4996 382.5C98.148 386.012 99.6458 387.615 103 390C105.917 391.036 107.562 390.992 110.5 390.5C112.838 389.761 113.755 388.793 115 386.5C116.174 383.766 116.323 382.234 115 379.5L108.5 376.5L108 361L113.5 359.5C115.144 358.484 115.818 357.711 116 355.5C116.351 353.215 115.855 352.122 113.5 350.5H107Z" fill="white" stroke="white"/>
<path d="M124.5 386V330C126.707 326.432 128.241 325.483 131.5 325.5C135.079 325.766 136.368 326.809 138 329.5C139.196 338.135 139.045 343.084 138 352C143.844 349.681 146.997 349.679 152.5 351C158.408 352.794 160.548 354.769 163.5 359C165.562 366.316 165.95 370.27 165 377L163 388.5C158.899 389.957 156.601 390.085 152.5 388.5L151 366L144.5 361.5L137.5 364.5L136.5 386C135.695 389.435 133.981 390.138 130 390.5C127.348 389.962 126.02 389.289 124.5 386Z" fill="white" stroke="white"/>
<circle cx="249" cy="335.5" r="7.5" fill="#1CA4F1"/>
<circle cx="76" cy="335.5" r="7.5" fill="white"/>
<path fill-rule="evenodd" clip-rule="evenodd" d="M216.5 352C210.873 349.051 207.48 348.504 201 349.5C196.237 352.193 194.278 354.257 191.5 358.5C188.751 363.963 188.468 367.778 189.5 375.5C191.903 381.021 193.799 383.491 198 387C201.845 389.571 204.431 390.066 209.5 390C213.885 389.454 216.312 388.745 220.5 385.5C224.02 388.567 225.985 388.994 229.5 387C233.015 385.006 232.184 366.002 229.5 352C228.083 350.508 226.983 349.885 224 349.5C220.693 349.554 219.041 350.049 216.5 352ZM211 360C208.363 359.253 207.117 359.418 205.5 361C203.337 363.404 202.732 365.312 202.5 369.5C202.784 372.961 203.632 374.565 206 377C209.104 378.034 210.854 377.876 214 376C215.924 374.406 216.856 373.368 217.5 370.5C217.767 367.853 217.631 366.329 216.5 363.5C214.675 361.791 213.519 360.97 211 360Z" fill="#1CA4F1" stroke="#1CA4F1"/>
</svg>
